HIERARCHY
ROOT hip
{
	OFFSET 0.000000 0.000000 0.000000 
	CHANNELS 6 Xposition Yposition Zposition Xrotation Zrotation Yrotation
	JOINT abdomen
	{
		OFFSET 0.000000 3.402643 0.000000 
		CHANNELS 3 Xrotation Zrotation Yrotation
		JOINT chest
		{
			OFFSET 0.000000 8.438565 -0.680529 
			CHANNELS 3 Xrotation Zrotation Yrotation
			JOINT neck
			{
				OFFSET 0.000000 10.207942 -0.272212 
				CHANNELS 3 Xrotation Zrotation Yrotation
				JOINT head
				{
					OFFSET 0.000000 3.130431 0.000000 
					CHANNELS 3 Xrotation Zrotation Yrotation
					End Site
					{
						OFFSET 0.000000 3.130435 0.000000 
					}
				}
			}
			JOINT lCollar
			{
				OFFSET 3.470700 6.669187 -0.816635 
				CHANNELS 3 Yrotation Zrotation Xrotation
				JOINT lShldr
				{
					OFFSET 3.198488 0.000000 0.000000 
					CHANNELS 3 Zrotation Yrotation Xrotation
					JOINT lForeArm
					{
						OFFSET 10.139888 0.000000 0.000000 
						CHANNELS 3 Yrotation Zrotation Xrotation
						JOINT lHand
						{
							OFFSET 8.370511 0.000000 0.000000 
							CHANNELS 3 Zrotation Yrotation Xrotation
							End Site
							{
								OFFSET 4.083176 0.000000 0.000000 
							}
						}
					}
				}
			}
			JOINT rCollar
			{
				OFFSET -3.470700 6.669187 -0.816635 
				CHANNELS 3 Yrotation Zrotation Xrotation
				JOINT rShldr
				{
					OFFSET -3.198488 0.000000 0.000000 
					CHANNELS 3 Zrotation Yrotation Xrotation
					JOINT rForeArm
					{
						OFFSET -10.139888 0.000000 0.000000 
						CHANNELS 3 Yrotation Zrotation Xrotation
						JOINT rHand
						{
							OFFSET -8.370511 0.000000 0.000000 
							CHANNELS 3 Zrotation Yrotation Xrotation
							End Site
							{
								OFFSET -4.083176 0.000000 0.000000 
							}
						}
					}
				}
			}
		}
	}
	JOINT lThigh
	{
		OFFSET 5.308129 -1.633274 1.361059 
		CHANNELS 3 Xrotation Zrotation Yrotation
		JOINT lShin
		{
			OFFSET -2.041588 -20.007561 0.000000 
			CHANNELS 3 Xrotation Zrotation Yrotation
			JOINT lFoot
			{
				OFFSET 0.000000 -19.190928 -1.224953 
				CHANNELS 3 Xrotation Yrotation Zrotation
				End Site
				{
					OFFSET 0.000000 -2.449906 4.627600 
				}
			}
		}
	}
	JOINT rThigh
	{
		OFFSET -5.308129 -1.633274 1.361059 
		CHANNELS 3 Xrotation Zrotation Yrotation
		JOINT rShin
		{
			OFFSET 2.041588 -20.007561 0.000000 
			CHANNELS 3 Xrotation Zrotation Yrotation
			JOINT rFoot
			{
				OFFSET 0.000000 -19.190928 -1.224953 
				CHANNELS 3 Xrotation Yrotation Zrotation
				End Site
				{
					OFFSET 0.000000 -2.449906 4.627600 
				}
			}
		}
	}
}
MOTION
Frames: 18
Frame Time: 0.033333
0.334508 41.121483 0.334508 13.090611 -8.640279 -1.737837 21.028458 1.433472 -3.738581 -3.916015 0.000054 -0.009738 35.080463 2.077648 -3.579155 10.524219 0.508720 -0.030344 -24.088644 -8.444372 -10.873421 -46.863869 -1.569409 -22.023466 -26.405888 -2.167081 2.304289 -38.815926 -50.520088 65.799850 2.765638 10.394928 -11.348614 57.139957 28.145702 -16.864042 71.508492 3.052679 1.462913 38.805038 50.520535 65.806732 -45.125408 2.177195 0.721185 66.014137 1.283167 -4.589146 -17.318012 -17.665863 -1.050651 -22.605757 -21.149946 -12.900530 60.324524 -0.916359 4.445022 14.902959 -16.792374 6.980369 
0.334508 34.708618 0.334508 19.230822 -18.032452 -4.671395 21.028458 1.433472 -3.738581 -3.916015 0.000054 -0.009738 35.080463 2.077648 -3.579155 10.524219 0.508720 -0.030344 -35.096230 -6.779141 -10.094723 -33.525105 14.390191 -20.993378 -26.405888 -2.167081 2.304289 -38.815926 -50.520088 65.799850 5.267665 9.987556 -11.279574 46.120445 38.583916 -11.234265 71.508492 3.052679 1.462913 38.805038 50.520535 65.806732 -54.885769 -2.011483 -0.103056 93.550713 3.241898 -4.535477 -19.037594 -32.188137 3.400276 -26.608231 -24.449060 -11.288923 60.325085 -0.898044 4.445583 20.169495 -27.039015 8.654115 
0.334508 29.234030 0.334508 25.360874 -26.121059 -8.350402 21.028458 1.433472 -3.738581 -3.916015 0.000054 -0.009738 35.080463 2.077648 -3.579155 10.524219 0.508720 -0.030344 -34.487164 -6.864384 -10.146331 -29.136242 18.519060 -12.730831 -26.405888 -2.167081 2.304289 -38.815926 -50.520088 65.799850 7.260383 9.666870 -11.221501 44.628864 46.154049 -8.395772 71.508492 3.052679 1.462913 38.805038 50.520535 65.806732 -53.726097 -5.741969 1.702945 96.858437 3.466169 -4.470520 -7.782625 -28.809212 3.848023 -30.837946 -23.484453 -9.174109 60.325085 -0.898058 4.445576 23.621813 -27.500139 9.049643 
0.334508 24.670120 0.334508 31.379562 -32.673325 -12.486355 21.028458 1.433472 -3.738581 -3.916015 0.000054 -0.009738 35.080463 2.077648 -3.579155 10.524219 0.508720 -0.030344 -23.853724 -8.485184 -10.886104 -31.077112 12.948867 -0.362239 -26.405888 -2.167081 2.304289 -38.815926 -50.520088 65.799850 8.977898 9.384093 -11.153075 51.952084 51.785866 -5.587797 71.508492 3.052679 1.462913 38.805038 50.520535 65.806732 -48.692993 -9.305848 3.386254 91.550995 3.095592 -4.576455 5.400297 -19.821495 0.266706 -34.709473 -21.605642 -7.193603 60.325085 -0.898059 4.445576 26.191357 -26.396839 9.350538 
0.334508 20.572542 0.334508 37.561863 -38.090351 -17.123154 21.028458 1.433472 -3.738581 -3.916015 0.000054 -0.009738 35.080463 2.077648 -3.579155 10.524219 0.508720 -0.030344 -10.050126 -10.716548 -11.386754 -35.661896 6.226667 14.049437 -26.405888 -2.167081 2.304289 -38.815926 -50.520088 65.799850 10.499775 9.143929 -11.100641 63.459293 56.352253 -1.311697 71.508492 3.052679 1.462913 38.805038 50.520535 65.806732 -44.293137 -12.362447 2.578689 86.469727 2.733903 -4.658588 15.882784 -12.744412 -2.774047 -37.914680 -19.674709 -5.614683 60.325890 -0.889627 4.431000 28.151205 -24.907587 9.640577 
0.334508 16.375050 0.334508 44.502647 -42.876717 -22.644470 21.028458 1.433472 -3.738581 -3.916015 0.000054 -0.009738 35.080463 2.077648 -3.579155 10.524219 0.508720 -0.030344 4.103754 -13.057793 -11.312699 -40.938923 1.531045 29.484243 -26.405888 -2.167081 2.304289 -38.815926 -50.520088 65.799850 11.872013 8.918176 -11.033174 76.886543 59.871063 4.360458 71.508492 3.052679 1.462913 38.805038 50.520535 65.806732 -40.885860 -14.842759 -1.220274 82.794395 2.469923 -4.687708 23.818283 -8.187487 -3.201884 -40.736279 -17.731503 -4.390014 60.325085 -0.898054 4.445579 29.801628 -23.283125 9.865615 
0.334508 11.633322 0.334508 53.015091 -47.212318 -29.728313 21.028458 1.433472 -3.738581 -3.916015 0.000054 -0.009738 35.080463 2.077648 -3.579155 10.524219 0.508720 -0.030344 19.072899 -15.398539 -10.615644 -46.031025 -0.761592 46.601856 -26.405888 -2.167081 2.304289 -38.815926 -50.520088 65.799850 13.234798 8.700174 -10.961951 92.791908 62.587399 11.892039 71.508492 3.052679 1.462913 38.805038 50.520535 65.806732 -37.390408 -16.757500 -6.320477 78.837006 2.197268 -4.692260 30.996918 -4.189139 -2.757518 -43.610813 -15.614313 -3.290310 60.334484 -0.898020 4.455612 31.406092 -21.342129 10.099623 
0.334508 6.336557 0.334508 63.523212 -50.847019 -38.793171 21.028458 1.433472 -3.738581 -3.916015 0.000054 -0.009738 35.080463 2.077648 -3.579155 10.524219 0.508720 -0.030344 35.023621 -17.592855 -9.209340 -49.671661 -0.559350 65.416328 -26.405888 -2.167081 2.304289 -38.815926 -50.520088 65.799850 14.685026 8.475664 -10.882792 111.365356 64.469185 21.340401 71.508492 3.052679 1.462913 38.805038 50.520535 65.806732 -33.814163 -18.005260 -11.983864 74.783615 1.894510 -4.681052 38.016922 -0.609181 -2.023201 -46.635418 -13.279767 -2.438421 60.325085 -0.898054 4.445579 33.068386 -19.011419 10.241544 
0.334508 1.506003 0.334508 74.470833 -53.072601 -48.411983 21.028458 1.433472 -3.738581 -3.916015 0.000054 -0.009738 35.080463 2.077648 -3.579155 10.524219 0.508720 -0.030344 45.000000 -18.960701 -7.722526 -50.128941 1.411700 80.796692 -26.405888 -2.167081 2.304289 -38.815926 -50.520088 65.799850 16.041182 8.259349 -10.807854 127.175011 65.808960 29.513691 71.508492 3.052679 1.462913 38.805038 50.520535 65.806732 -30.785175 -18.167299 -16.901436 71.216972 1.640356 -4.665397 44.355289 1.777560 -1.409627 -49.410610 -11.532429 -2.312865 60.325085 -0.898047 4.445583 34.511440 -16.655260 9.889625 
0.334508 0.095751 0.334508 74.470833 -53.072601 -48.411983 21.028458 1.433472 -3.738581 -3.916015 0.000054 -0.009738 35.080463 2.077648 -3.579155 10.524219 0.508720 -0.030344 36.623737 -17.783869 -9.033775 -50.428242 6.381583 71.548607 -26.405888 -2.167081 2.304289 -38.815926 -50.520088 65.799850 16.440769 10.602685 -10.995233 110.918327 69.887299 14.461604 71.508492 3.052679 1.462913 38.805038 50.520535 65.806732 -31.100895 -14.558550 -17.633043 71.216972 1.640352 -4.665400 43.330177 -1.682559 -0.608825 -49.989681 -13.915926 -7.147667 60.325085 -0.898053 4.445579 34.017078 -14.682260 4.609900 
0.334508 5.381566 0.334508 74.470833 -53.072601 -48.411983 21.028458 1.433472 -3.738581 -3.916015 0.000054 -0.009738 35.080463 2.077648 -3.579155 10.524219 0.508720 -0.030344 12.900356 -14.462527 -10.988662 -54.084827 16.905224 50.083538 -26.405888 -2.167081 2.304289 -38.815926 -50.520088 65.799850 16.894022 13.183610 -11.222944 68.832199 67.943481 -20.438623 71.508492 3.052679 1.462913 38.805038 50.520535 65.806732 -33.180466 -10.545378 -15.803997 71.217216 1.650080 -4.649102 44.173622 -5.176785 2.482719 -46.921696 -18.553461 -13.861760 60.325085 -0.898057 4.445578 30.693056 -9.969404 -1.724528 
0.334508 3.549320 0.334508 74.470833 -53.072601 -48.411983 21.028458 1.433472 -3.738581 -3.916015 0.000054 -0.009738 35.080463 2.077648 -3.579155 10.524219 0.508720 -0.030344 27.852339 -16.655333 -9.928048 -51.289322 10.386297 63.834789 -26.405888 -2.167081 2.304289 -38.815926 -50.520088 65.799850 16.511652 11.033323 -11.029023 95.376366 69.238533 2.415146 71.508492 3.052679 1.462913 38.805038 50.520535 65.806732 -32.154976 -13.884371 -16.236597 71.216972 1.640354 -4.665398 44.194069 -2.135334 0.773627 -48.196198 -15.524369 -8.710515 60.325890 -0.889629 4.430998 32.176830 -12.972543 3.259307 
0.334508 1.239501 0.334508 74.470833 -53.072601 -48.411983 21.028458 1.433472 -3.738581 -3.916015 0.000054 -0.009738 35.080463 2.077648 -3.579155 10.524219 0.508720 -0.030344 45.000000 -18.960701 -7.722526 -50.128941 1.411700 80.796692 -26.405888 -2.167081 2.304289 -38.815926 -50.520088 65.799850 16.041182 8.259349 -10.807854 127.175011 65.808960 29.513691 71.508492 3.052679 1.462913 38.805038 50.520535 65.806732 -30.785175 -18.167303 -16.901434 71.216972 1.640358 -4.665397 44.355289 1.777560 -1.409627 -49.410610 -11.532429 -2.312865 60.325085 -0.898047 4.445583 34.511440 -16.655260 9.889625 
0.334508 1.239501 0.334508 74.470833 -53.072601 -48.411983 21.028458 1.433472 -3.738581 -3.916015 0.000054 -0.009738 35.080463 2.077648 -3.579155 10.524219 0.508720 -0.030344 45.000000 -18.960701 -7.722526 -50.128941 1.411700 80.796692 -26.405888 -2.167081 2.304289 -38.815926 -50.520088 65.799850 16.041182 8.259349 -10.807854 127.175011 65.808960 29.513691 71.508492 3.052679 1.462913 38.805038 50.520535 65.806732 -30.785175 -18.167303 -16.901434 71.216972 1.640358 -4.665397 44.355289 1.777560 -1.409627 -49.410610 -11.532429 -2.312865 60.325085 -0.898047 4.445583 34.511440 -16.655260 9.889625 
0.334508 1.239501 0.334508 74.470833 -53.072601 -48.411983 21.028458 1.433472 -3.738581 -3.916015 0.000054 -0.009738 35.080463 2.077648 -3.579155 10.524219 0.508720 -0.030344 45.000000 -18.960701 -7.722526 -50.128941 1.411700 80.796692 -26.405888 -2.167081 2.304289 -38.815926 -50.520088 65.799850 16.041182 8.259349 -10.807854 127.175011 65.808960 29.513691 71.508492 3.052679 1.462913 38.805038 50.520535 65.806732 -30.785175 -18.167303 -16.901434 71.216972 1.640358 -4.665397 44.355289 1.777560 -1.409627 -49.410610 -11.532429 -2.312865 60.325085 -0.898047 4.445583 34.511440 -16.655260 9.889625 
0.334508 1.239501 0.334508 74.470833 -53.072601 -48.411983 21.028458 1.433472 -3.738581 -3.916015 0.000054 -0.009738 35.080463 2.077648 -3.579155 10.524219 0.508720 -0.030344 45.000000 -18.960701 -7.722526 -50.128941 1.411700 80.796692 -26.405888 -2.167081 2.304289 -38.815926 -50.520088 65.799850 16.041182 8.259349 -10.807854 127.175011 65.808960 29.513691 71.508492 3.052679 1.462913 38.805038 50.520535 65.806732 -30.785175 -18.167303 -16.901434 71.216972 1.640358 -4.665397 44.355289 1.777560 -1.409627 -49.410610 -11.532429 -2.312865 60.325085 -0.898047 4.445583 34.511440 -16.655260 9.889625 
0.334508 1.239501 0.334508 74.470833 -53.072601 -48.411983 21.028458 1.433472 -3.738581 -3.916015 0.000054 -0.009738 35.080463 2.077648 -3.579155 10.524219 0.508720 -0.030344 45.000000 -18.960701 -7.722526 -50.128941 1.411700 80.796692 -26.405888 -2.167081 2.304289 -38.815926 -50.520088 65.799850 16.041182 8.259349 -10.807854 127.175011 65.808960 29.513691 71.508492 3.052679 1.462913 38.805038 50.520535 65.806732 -30.785175 -18.167303 -16.901434 71.216972 1.640358 -4.665397 44.355289 1.777560 -1.409627 -49.410610 -11.532429 -2.312865 60.325085 -0.898047 4.445583 34.511440 -16.655260 9.889625 
0.334508 1.239501 0.334508 74.470833 -53.072601 -48.411983 21.028458 1.433472 -3.738581 -3.916015 0.000054 -0.009738 35.080463 2.077648 -3.579155 10.524219 0.508720 -0.030344 45.000000 -18.960701 -7.722526 -50.128941 1.411700 80.796692 -26.405888 -2.167081 2.304289 -38.815926 -50.520088 65.799850 16.041182 8.259349 -10.807854 127.175011 65.808960 29.513691 71.508492 3.052679 1.462913 38.805038 50.520535 65.806732 -30.785175 -18.167303 -16.901434 71.216972 1.640358 -4.665397 44.355289 1.777560 -1.409627 -49.410610 -11.532429 -2.312865 60.325085 -0.898047 4.445583 34.511440 -16.655260 9.889625 
